<svg width="21" height="18" viewBox="0 0 21 18" fill="none" xmlns="http://www.w3.org/2000/svg">
<path d="M17.6607 2.39203C17.2196 1.95072 16.6958 1.60063 16.1194 1.36179C15.5429 1.12294 14.9251 1 14.3011 1C13.6771 1 13.0593 1.12294 12.4829 1.36179C11.9064 1.60063 11.3827 1.95072 10.9416 2.39203L10.0261 3.30749L9.11066 2.39203C8.21965 1.50102 7.01119 1.00046 5.75111 1.00046C4.49104 1.00046 3.28258 1.50102 2.39157 2.39203C1.50056 3.28304 1 4.4915 1 5.75158C1 7.01165 1.50056 8.22012 2.39157 9.11112L3.30702 10.0266L10.0261 16.7457L16.7452 10.0266L17.6607 9.11112C18.102 8.67001 18.4521 8.14628 18.6909 7.56984C18.9298 6.9934 19.0527 6.37554 19.0527 5.75158C19.0527 5.12761 18.9298 4.50976 18.6909 3.93332C18.4521 3.35687 18.102 2.83314 17.6607 2.39203Z" stroke="#BABABA" stroke-width="2" stroke-linecap="round" stroke-linejoin="round"/>
</svg>
