<svg width="39" height="39" viewBox="0 0 39 39" fill="none" xmlns="http://www.w3.org/2000/svg">
<path d="M33.864 7.49129C33.034 6.66092 32.0485 6.00221 30.9639 5.5528C29.8793 5.10338 28.7168 4.87207 27.5427 4.87207C26.3687 4.87207 25.2061 5.10338 24.1215 5.5528C23.0369 6.00221 22.0515 6.66092 21.2215 7.49129L19.499 9.21379L17.7765 7.49129C16.1 5.81479 13.8262 4.87294 11.4552 4.87294C9.08429 4.87294 6.81047 5.81479 5.13397 7.49129C3.45747 9.16779 2.51563 11.4416 2.51562 13.8125C2.51562 16.1835 3.45747 18.4573 5.13397 20.1338L6.85647 21.8563L19.499 34.4988L32.1415 21.8563L33.864 20.1338C34.6943 19.3038 35.353 18.3184 35.8025 17.2337C36.2519 16.1491 36.4832 14.9866 36.4832 13.8125C36.4832 12.6385 36.2519 11.476 35.8025 10.3913C35.353 9.30671 34.6943 8.32127 33.864 7.49129Z" stroke="#1B1B1B" stroke-width="3" stroke-linecap="round" stroke-linejoin="round"/>
</svg>
