<svg width="88" height="22" viewBox="0 0 88 22" fill="none" xmlns="http://www.w3.org/2000/svg">
<path d="M5.63192 13.952V21.024C5.39726 21.088 5.02392 21.152 4.51192 21.216C3.99992 21.28 3.49859 21.312 3.00792 21.312C2.51726 21.312 2.07992 21.2693 1.69592 21.184C1.33326 21.12 1.02392 20.992 0.767922 20.8C0.511922 20.608 0.319922 20.3413 0.191922 20C0.063922 19.6586 -7.79629e-05 19.2106 -7.79629e-05 18.656V1.75998C0.234589 1.71731 0.607922 1.66398 1.11992 1.59998C1.63192 1.51464 2.12259 1.47198 2.59192 1.47198C3.08259 1.47198 3.50926 1.51464 3.87192 1.59998C4.25592 1.66398 4.57592 1.79198 4.83192 1.98398C5.08792 2.17598 5.27992 2.44264 5.40792 2.78398C5.53592 3.12531 5.59992 3.57331 5.59992 4.12798V9.21598L12.2559 1.56798C13.7066 1.56798 14.7413 1.84531 15.3599 2.39998C15.9999 2.93331 16.3199 3.57331 16.3199 4.31998C16.3199 4.87464 16.1813 5.39731 15.9039 5.88798C15.6266 6.37864 15.1786 6.93331 14.5599 7.55198L10.5599 11.552C11.0933 12.1493 11.6479 12.768 12.2239 13.408C12.8213 14.048 13.3973 14.6773 13.9519 15.296C14.5279 15.8933 15.0719 16.4693 15.5839 17.024C16.1173 17.5786 16.5759 18.0586 16.9599 18.464C16.9599 18.9333 16.8746 19.3493 16.7039 19.712C16.5333 20.0746 16.2986 20.384 15.9999 20.64C15.7226 20.896 15.4026 21.088 15.0399 21.216C14.6773 21.344 14.2933 21.408 13.8879 21.408C13.0133 21.408 12.2986 21.1946 11.7439 20.768C11.1893 20.32 10.6559 19.7973 10.1439 19.2L5.63192 13.952ZM29.0337 11.296C29.0337 10.6346 28.8417 10.1546 28.4577 9.85598C28.095 9.53598 27.5937 9.37598 26.9537 9.37598C26.527 9.37598 26.1003 9.42931 25.6737 9.53598C25.2683 9.64264 24.9163 9.80264 24.6177 10.016V21.12C24.4043 21.184 24.063 21.248 23.5937 21.312C23.1457 21.376 22.6763 21.408 22.1857 21.408C21.7163 21.408 21.2897 21.376 20.9057 21.312C20.543 21.248 20.2337 21.12 19.9777 20.928C19.7217 20.736 19.519 20.48 19.3697 20.16C19.2417 19.8186 19.1777 19.3813 19.1777 18.848V9.24798C19.1777 8.67198 19.295 8.20264 19.5297 7.83998C19.7857 7.47731 20.127 7.14664 20.5537 6.84798C21.279 6.33598 22.1857 5.91998 23.2737 5.59998C24.383 5.27998 25.6097 5.11998 26.9537 5.11998C29.3643 5.11998 31.2203 5.65331 32.5217 6.71998C33.823 7.76531 34.4737 9.22664 34.4737 11.104V21.12C34.2603 21.184 33.919 21.248 33.4497 21.312C33.0017 21.376 32.5323 21.408 32.0417 21.408C31.5723 21.408 31.1457 21.376 30.7617 21.312C30.399 21.248 30.0897 21.12 29.8337 20.928C29.5777 20.736 29.375 20.48 29.2257 20.16C29.0977 19.8186 29.0337 19.3813 29.0337 18.848V11.296ZM53.9299 13.376C53.9299 14.6986 53.7273 15.8826 53.3219 16.928C52.9166 17.952 52.3406 18.816 51.5939 19.52C50.8686 20.224 49.9939 20.7573 48.9699 21.12C47.9459 21.4826 46.8046 21.664 45.5459 21.664C44.2873 21.664 43.1459 21.472 42.1219 21.088C41.0979 20.704 40.2126 20.16 39.4659 19.456C38.7406 18.7306 38.1753 17.856 37.7699 16.832C37.3646 15.808 37.1619 14.656 37.1619 13.376C37.1619 12.1173 37.3646 10.976 37.7699 9.95198C38.1753 8.92798 38.7406 8.06398 39.4659 7.35998C40.2126 6.63464 41.0979 6.07998 42.1219 5.69598C43.1459 5.31198 44.2873 5.11998 45.5459 5.11998C46.8046 5.11998 47.9459 5.32264 48.9699 5.72798C49.9939 6.11198 50.8686 6.66664 51.5939 7.39198C52.3406 8.09598 52.9166 8.95998 53.3219 9.98398C53.7273 11.008 53.9299 12.1386 53.9299 13.376ZM42.7299 13.376C42.7299 14.6773 42.9753 15.68 43.4659 16.384C43.9779 17.0666 44.6819 17.408 45.5779 17.408C46.4739 17.408 47.1566 17.056 47.6259 16.352C48.1166 15.648 48.3619 14.656 48.3619 13.376C48.3619 12.096 48.1166 11.1146 47.6259 10.432C47.1353 9.72798 46.4419 9.37598 45.5459 9.37598C44.6499 9.37598 43.9566 9.72798 43.4659 10.432C42.9753 11.1146 42.7299 12.096 42.7299 13.376ZM65.3519 9.40798C64.8186 9.40798 64.3066 9.49331 63.8159 9.66398C63.3466 9.83464 62.9306 10.0906 62.5679 10.432C62.2266 10.752 61.9493 11.1573 61.7359 11.648C61.5226 12.1386 61.4159 12.7146 61.4159 13.376C61.4159 14.6986 61.7893 15.6906 62.5359 16.352C63.3039 17.0133 64.2319 17.344 65.3199 17.344C65.9599 17.344 66.5146 17.2693 66.9839 17.12C67.4533 16.9706 67.8693 16.8106 68.2319 16.64C68.6586 16.9386 68.9786 17.2693 69.1919 17.632C69.4053 17.9733 69.5119 18.3893 69.5119 18.88C69.5119 19.7546 69.0959 20.4373 68.2639 20.928C67.4319 21.3973 66.2799 21.632 64.8079 21.632C63.4639 21.632 62.2479 21.44 61.1599 21.056C60.0719 20.6506 59.1333 20.096 58.3439 19.392C57.5759 18.6666 56.9786 17.8026 56.5519 16.8C56.1253 15.7973 55.9119 14.688 55.9119 13.472C55.9119 12.064 56.1359 10.8373 56.5839 9.79198C57.0533 8.72531 57.6826 7.85064 58.4719 7.16798C59.2613 6.48531 60.1679 5.97331 61.1919 5.63198C62.2373 5.29064 63.3359 5.11998 64.4879 5.11998C66.0239 5.11998 67.2079 5.39731 68.0399 5.95198C68.8719 6.50664 69.2879 7.22131 69.2879 8.09598C69.2879 8.50131 69.1919 8.88531 68.9999 9.24798C68.8079 9.58931 68.5839 9.88798 68.3279 10.144C67.9653 9.97331 67.5279 9.81331 67.0159 9.66398C66.5039 9.49331 65.9493 9.40798 65.3519 9.40798ZM87.4402 18.336C87.3335 19.3386 87.0348 20.1066 86.5442 20.64C86.0748 21.1733 85.3815 21.44 84.4642 21.44C83.7815 21.44 83.1735 21.28 82.6402 20.96C82.1068 20.6186 81.5308 20.0533 80.9122 19.264L77.7442 15.296V21.12C77.5095 21.1626 77.1575 21.216 76.6882 21.28C76.2402 21.3653 75.7815 21.408 75.3122 21.408C74.8428 21.408 74.4162 21.376 74.0322 21.312C73.6695 21.248 73.3602 21.12 73.1042 20.928C72.8482 20.736 72.6455 20.48 72.4962 20.16C72.3682 19.8186 72.3042 19.3813 72.3042 18.848V0.319977C72.5388 0.255976 72.8802 0.191977 73.3282 0.127977C73.7975 0.0426439 74.2668 -2.28882e-05 74.7362 -2.28882e-05C75.2055 -2.28882e-05 75.6215 0.0319767 75.9842 0.0959759C76.3682 0.159976 76.6882 0.287977 76.9442 0.479977C77.2002 0.671977 77.3922 0.938643 77.5202 1.27998C77.6695 1.59998 77.7442 2.02664 77.7442 2.55998V11.008L83.2482 5.37598C84.3575 5.37598 85.2428 5.62131 85.9042 6.11198C86.5868 6.60264 86.9282 7.22131 86.9282 7.96798C86.9282 8.28798 86.8748 8.58664 86.7682 8.86398C86.6615 9.11998 86.4908 9.38664 86.2562 9.66398C86.0428 9.94131 85.7548 10.24 85.3922 10.56C85.0508 10.8586 84.6455 11.2106 84.1762 11.616L82.3202 13.216L87.4402 18.336Z" fill="#1B1B1B"/>
</svg>
