<svg width="88" height="22" viewBox="0 0 88 22" fill="none" xmlns="http://www.w3.org/2000/svg">
<path d="M5.63192 13.9523V21.0243C5.39726 21.0883 5.02392 21.1523 4.51192 21.2163C3.99992 21.2803 3.49859 21.3123 3.00792 21.3123C2.51726 21.3123 2.07992 21.2697 1.69592 21.1843C1.33326 21.1203 1.02392 20.9923 0.767922 20.8003C0.511922 20.6083 0.319922 20.3417 0.191922 20.0003C0.063922 19.659 -7.79629e-05 19.211 -7.79629e-05 18.6563V1.76034C0.234589 1.71768 0.607922 1.66434 1.11992 1.60034C1.63192 1.51501 2.12259 1.47234 2.59192 1.47234C3.08259 1.47234 3.50926 1.51501 3.87192 1.60034C4.25592 1.66434 4.57592 1.79234 4.83192 1.98434C5.08792 2.17634 5.27992 2.44301 5.40792 2.78434C5.53592 3.12568 5.59992 3.57368 5.59992 4.12834V9.21634L12.2559 1.56834C13.7066 1.56834 14.7413 1.84568 15.3599 2.40034C15.9999 2.93368 16.3199 3.57368 16.3199 4.32034C16.3199 4.87501 16.1813 5.39768 15.9039 5.88834C15.6266 6.37901 15.1786 6.93368 14.5599 7.55234L10.5599 11.5523C11.0933 12.1497 11.6479 12.7683 12.2239 13.4083C12.8213 14.0483 13.3973 14.6777 13.9519 15.2963C14.5279 15.8937 15.0719 16.4697 15.5839 17.0243C16.1173 17.579 16.5759 18.059 16.9599 18.4643C16.9599 18.9337 16.8746 19.3497 16.7039 19.7123C16.5333 20.075 16.2986 20.3843 15.9999 20.6403C15.7226 20.8963 15.4026 21.0883 15.0399 21.2163C14.6773 21.3443 14.2933 21.4083 13.8879 21.4083C13.0133 21.4083 12.2986 21.195 11.7439 20.7683C11.1893 20.3203 10.6559 19.7977 10.1439 19.2003L5.63192 13.9523ZM29.0337 11.2963C29.0337 10.635 28.8417 10.155 28.4577 9.85634C28.095 9.53634 27.5937 9.37634 26.9537 9.37634C26.527 9.37634 26.1003 9.42968 25.6737 9.53634C25.2683 9.64301 24.9163 9.80301 24.6177 10.0163V21.1203C24.4043 21.1843 24.063 21.2483 23.5937 21.3123C23.1457 21.3763 22.6763 21.4083 22.1857 21.4083C21.7163 21.4083 21.2897 21.3763 20.9057 21.3123C20.543 21.2483 20.2337 21.1203 19.9777 20.9283C19.7217 20.7363 19.519 20.4803 19.3697 20.1603C19.2417 19.819 19.1777 19.3817 19.1777 18.8483V9.24834C19.1777 8.67234 19.295 8.20301 19.5297 7.84034C19.7857 7.47768 20.127 7.14701 20.5537 6.84834C21.279 6.33634 22.1857 5.92034 23.2737 5.60034C24.383 5.28034 25.6097 5.12034 26.9537 5.12034C29.3643 5.12034 31.2203 5.65368 32.5217 6.72034C33.823 7.76568 34.4737 9.22701 34.4737 11.1043V21.1203C34.2603 21.1843 33.919 21.2483 33.4497 21.3123C33.0017 21.3763 32.5323 21.4083 32.0417 21.4083C31.5723 21.4083 31.1457 21.3763 30.7617 21.3123C30.399 21.2483 30.0897 21.1203 29.8337 20.9283C29.5777 20.7363 29.375 20.4803 29.2257 20.1603C29.0977 19.819 29.0337 19.3817 29.0337 18.8483V11.2963ZM53.9299 13.3763C53.9299 14.699 53.7273 15.883 53.3219 16.9283C52.9166 17.9523 52.3406 18.8163 51.5939 19.5203C50.8686 20.2243 49.9939 20.7577 48.9699 21.1203C47.9459 21.483 46.8046 21.6643 45.5459 21.6643C44.2873 21.6643 43.1459 21.4723 42.1219 21.0883C41.0979 20.7043 40.2126 20.1603 39.4659 19.4563C38.7406 18.731 38.1753 17.8563 37.7699 16.8323C37.3646 15.8083 37.1619 14.6563 37.1619 13.3763C37.1619 12.1177 37.3646 10.9763 37.7699 9.95234C38.1753 8.92834 38.7406 8.06434 39.4659 7.36034C40.2126 6.63501 41.0979 6.08034 42.1219 5.69634C43.1459 5.31234 44.2873 5.12034 45.5459 5.12034C46.8046 5.12034 47.9459 5.32301 48.9699 5.72834C49.9939 6.11234 50.8686 6.66701 51.5939 7.39234C52.3406 8.09634 52.9166 8.96034 53.3219 9.98434C53.7273 11.0083 53.9299 12.139 53.9299 13.3763ZM42.7299 13.3763C42.7299 14.6777 42.9753 15.6803 43.4659 16.3843C43.9779 17.067 44.6819 17.4083 45.5779 17.4083C46.4739 17.4083 47.1566 17.0563 47.6259 16.3523C48.1166 15.6483 48.3619 14.6563 48.3619 13.3763C48.3619 12.0963 48.1166 11.115 47.6259 10.4323C47.1353 9.72834 46.4419 9.37634 45.5459 9.37634C44.6499 9.37634 43.9566 9.72834 43.4659 10.4323C42.9753 11.115 42.7299 12.0963 42.7299 13.3763ZM65.3519 9.40834C64.8186 9.40834 64.3066 9.49368 63.8159 9.66434C63.3466 9.83501 62.9306 10.091 62.5679 10.4323C62.2266 10.7523 61.9493 11.1577 61.7359 11.6483C61.5226 12.139 61.4159 12.715 61.4159 13.3763C61.4159 14.699 61.7893 15.691 62.5359 16.3523C63.3039 17.0137 64.2319 17.3443 65.3199 17.3443C65.9599 17.3443 66.5146 17.2697 66.9839 17.1203C67.4533 16.971 67.8693 16.811 68.2319 16.6403C68.6586 16.939 68.9786 17.2697 69.1919 17.6323C69.4053 17.9737 69.5119 18.3897 69.5119 18.8803C69.5119 19.755 69.0959 20.4377 68.2639 20.9283C67.4319 21.3977 66.2799 21.6323 64.8079 21.6323C63.4639 21.6323 62.2479 21.4403 61.1599 21.0563C60.0719 20.651 59.1333 20.0963 58.3439 19.3923C57.5759 18.667 56.9786 17.803 56.5519 16.8003C56.1253 15.7977 55.9119 14.6883 55.9119 13.4723C55.9119 12.0643 56.1359 10.8377 56.5839 9.79234C57.0533 8.72568 57.6826 7.85101 58.4719 7.16834C59.2613 6.48568 60.1679 5.97368 61.1919 5.63234C62.2373 5.29101 63.3359 5.12034 64.4879 5.12034C66.0239 5.12034 67.2079 5.39768 68.0399 5.95234C68.8719 6.50701 69.2879 7.22168 69.2879 8.09634C69.2879 8.50168 69.1919 8.88568 68.9999 9.24834C68.8079 9.58968 68.5839 9.88834 68.3279 10.1443C67.9653 9.97368 67.5279 9.81368 67.0159 9.66434C66.5039 9.49368 65.9493 9.40834 65.3519 9.40834ZM87.4402 18.3363C87.3335 19.339 87.0348 20.107 86.5442 20.6403C86.0748 21.1737 85.3815 21.4403 84.4642 21.4403C83.7815 21.4403 83.1735 21.2803 82.6402 20.9603C82.1068 20.619 81.5308 20.0537 80.9122 19.2643L77.7442 15.2963V21.1203C77.5095 21.163 77.1575 21.2163 76.6882 21.2803C76.2402 21.3657 75.7815 21.4083 75.3122 21.4083C74.8428 21.4083 74.4162 21.3763 74.0322 21.3123C73.6695 21.2483 73.3602 21.1203 73.1042 20.9283C72.8482 20.7363 72.6455 20.4803 72.4962 20.1603C72.3682 19.819 72.3042 19.3817 72.3042 18.8483V0.320343C72.5388 0.256343 72.8802 0.192343 73.3282 0.128344C73.7975 0.0430101 74.2668 0.000343323 74.7362 0.000343323C75.2055 0.000343323 75.6215 0.0323429 75.9842 0.0963421C76.3682 0.160343 76.6882 0.288343 76.9442 0.480343C77.2002 0.672343 77.3922 0.939009 77.5202 1.28034C77.6695 1.60034 77.7442 2.02701 77.7442 2.56034V11.0083L83.2482 5.37634C84.3575 5.37634 85.2428 5.62168 85.9042 6.11234C86.5868 6.60301 86.9282 7.22168 86.9282 7.96834C86.9282 8.28834 86.8748 8.58701 86.7682 8.86434C86.6615 9.12034 86.4908 9.38701 86.2562 9.66434C86.0428 9.94168 85.7548 10.2403 85.3922 10.5603C85.0508 10.859 84.6455 11.211 84.1762 11.6163L82.3202 13.2163L87.4402 18.3363Z" fill="#1B1B1B"/>
</svg>
