<svg width="132" height="33" viewBox="0 0 132 33" fill="none" xmlns="http://www.w3.org/2000/svg">
<path d="M8.44886 20.928V31.536C8.09686 31.632 7.53686 31.728 6.76886 31.824C6.00086 31.92 5.24886 31.968 4.51286 31.968C3.77686 31.968 3.12086 31.904 2.54486 31.776C2.00086 31.68 1.53686 31.488 1.15286 31.2C0.76886 30.912 0.48086 30.512 0.288859 30C0.0968596 29.488 0.000859618 28.816 0.000859618 27.984V2.64003C0.35286 2.57603 0.91286 2.49603 1.68086 2.40003C2.44886 2.27203 3.18486 2.20803 3.88886 2.20803C4.62486 2.20803 5.26486 2.27203 5.80886 2.40003C6.38486 2.49603 6.86486 2.68803 7.24886 2.97603C7.63286 3.26403 7.92086 3.66403 8.11286 4.17603C8.30486 4.68803 8.40086 5.36003 8.40086 6.19203V13.824L18.3849 2.35203C20.5609 2.35203 22.1129 2.76803 23.0409 3.60003C24.0009 4.40003 24.4809 5.36003 24.4809 6.48003C24.4809 7.31203 24.2729 8.09603 23.8569 8.83203C23.4409 9.56803 22.7689 10.4 21.8409 11.328L15.8409 17.328C16.6409 18.224 17.4729 19.152 18.3369 20.112C19.2329 21.072 20.0969 22.016 20.9289 22.944C21.7929 23.84 22.6089 24.704 23.3769 25.536C24.1769 26.368 24.8649 27.088 25.4409 27.696C25.4409 28.4 25.3129 29.024 25.0569 29.568C24.8009 30.112 24.4489 30.576 24.0009 30.96C23.5849 31.344 23.1049 31.632 22.5609 31.824C22.0169 32.016 21.4409 32.112 20.8329 32.112C19.5209 32.112 18.4489 31.792 17.6169 31.152C16.7849 30.48 15.9849 29.696 15.2169 28.8L8.44886 20.928ZM43.5515 16.944C43.5515 15.952 43.2635 15.232 42.6875 14.784C42.1435 14.304 41.3915 14.064 40.4315 14.064C39.7915 14.064 39.1515 14.144 38.5115 14.304C37.9035 14.464 37.3755 14.704 36.9275 15.024V31.68C36.6075 31.776 36.0955 31.872 35.3915 31.968C34.7195 32.064 34.0155 32.112 33.2795 32.112C32.5755 32.112 31.9355 32.064 31.3595 31.968C30.8155 31.872 30.3515 31.68 29.9675 31.392C29.5835 31.104 29.2795 30.72 29.0555 30.24C28.8635 29.728 28.7675 29.072 28.7675 28.272V13.872C28.7675 13.008 28.9435 12.304 29.2955 11.76C29.6795 11.216 30.1915 10.72 30.8315 10.272C31.9195 9.50403 33.2795 8.88003 34.9115 8.40003C36.5755 7.92003 38.4155 7.68003 40.4315 7.68003C44.0475 7.68003 46.8315 8.48003 48.7835 10.08C50.7355 11.648 51.7115 13.84 51.7115 16.656V31.68C51.3915 31.776 50.8795 31.872 50.1755 31.968C49.5035 32.064 48.7995 32.112 48.0635 32.112C47.3595 32.112 46.7195 32.064 46.1435 31.968C45.5995 31.872 45.1355 31.68 44.7515 31.392C44.3675 31.104 44.0635 30.72 43.8395 30.24C43.6475 29.728 43.5515 29.072 43.5515 28.272V16.944ZM80.8959 20.064C80.8959 22.048 80.5919 23.824 79.9839 25.392C79.3759 26.928 78.5119 28.224 77.3919 29.28C76.3039 30.336 74.9919 31.136 73.4559 31.68C71.9199 32.224 70.2079 32.496 68.3199 32.496C66.4319 32.496 64.7199 32.208 63.1839 31.632C61.6479 31.056 60.3199 30.24 59.1999 29.184C58.1119 28.096 57.2639 26.784 56.6559 25.248C56.0479 23.712 55.7439 21.984 55.7439 20.064C55.7439 18.176 56.0479 16.464 56.6559 14.928C57.2639 13.392 58.1119 12.096 59.1999 11.04C60.3199 9.95203 61.6479 9.12003 63.1839 8.54403C64.7199 7.96803 66.4319 7.68003 68.3199 7.68003C70.2079 7.68003 71.9199 7.98403 73.4559 8.59203C74.9919 9.16803 76.3039 10 77.3919 11.088C78.5119 12.144 79.3759 13.44 79.9839 14.976C80.5919 16.512 80.8959 18.208 80.8959 20.064ZM64.0959 20.064C64.0959 22.016 64.4639 23.52 65.1999 24.576C65.9679 25.6 67.0239 26.112 68.3679 26.112C69.7119 26.112 70.7359 25.584 71.4399 24.528C72.1759 23.472 72.5439 21.984 72.5439 20.064C72.5439 18.144 72.1759 16.672 71.4399 15.648C70.7039 14.592 69.6639 14.064 68.3199 14.064C66.9759 14.064 65.9359 14.592 65.1999 15.648C64.4639 16.672 64.0959 18.144 64.0959 20.064ZM98.0289 14.112C97.2289 14.112 96.4609 14.24 95.7249 14.496C95.0209 14.752 94.3969 15.136 93.8529 15.648C93.3409 16.128 92.9249 16.736 92.6049 17.472C92.2849 18.208 92.1249 19.072 92.1249 20.064C92.1249 22.048 92.6849 23.536 93.8049 24.528C94.9569 25.52 96.3489 26.016 97.9809 26.016C98.9409 26.016 99.7729 25.904 100.477 25.68C101.181 25.456 101.805 25.216 102.349 24.96C102.989 25.408 103.469 25.904 103.789 26.448C104.109 26.96 104.269 27.584 104.269 28.32C104.269 29.632 103.645 30.656 102.397 31.392C101.149 32.096 99.4209 32.448 97.2129 32.448C95.1969 32.448 93.3729 32.16 91.7409 31.584C90.1089 30.976 88.7009 30.144 87.5169 29.088C86.3649 28 85.4689 26.704 84.8289 25.2C84.1889 23.696 83.8689 22.032 83.8689 20.208C83.8689 18.096 84.2049 16.256 84.8769 14.688C85.5809 13.088 86.5249 11.776 87.7089 10.752C88.8929 9.72803 90.2529 8.96003 91.7889 8.44803C93.3569 7.93603 95.0049 7.68003 96.7329 7.68003C99.0369 7.68003 100.813 8.09603 102.061 8.92803C103.309 9.76003 103.933 10.832 103.933 12.144C103.933 12.752 103.789 13.328 103.501 13.872C103.213 14.384 102.877 14.832 102.493 15.216C101.949 14.96 101.293 14.72 100.525 14.496C99.7569 14.24 98.9249 14.112 98.0289 14.112ZM131.161 27.504C131.001 29.008 130.553 30.16 129.817 30.96C129.113 31.76 128.073 32.16 126.697 32.16C125.673 32.16 124.761 31.92 123.961 31.44C123.161 30.928 122.297 30.08 121.369 28.896L116.617 22.944V31.68C116.265 31.744 115.737 31.824 115.033 31.92C114.361 32.048 113.673 32.112 112.969 32.112C112.265 32.112 111.625 32.064 111.049 31.968C110.505 31.872 110.041 31.68 109.657 31.392C109.273 31.104 108.969 30.72 108.745 30.24C108.553 29.728 108.457 29.072 108.457 28.272V0.480026C108.809 0.384026 109.321 0.288026 109.993 0.192027C110.697 0.0640268 111.401 2.67029e-05 112.105 2.67029e-05C112.809 2.67029e-05 113.433 0.0480261 113.977 0.144025C114.553 0.240026 115.033 0.432026 115.417 0.720026C115.801 1.00803 116.089 1.40803 116.281 1.92002C116.505 2.40003 116.617 3.04003 116.617 3.84003V16.512L124.873 8.06403C126.537 8.06403 127.865 8.43203 128.857 9.16803C129.881 9.90403 130.393 10.832 130.393 11.952C130.393 12.432 130.313 12.88 130.153 13.296C129.993 13.68 129.737 14.08 129.385 14.496C129.065 14.912 128.633 15.36 128.089 15.84C127.577 16.288 126.969 16.816 126.265 17.424L123.481 19.824L131.161 27.504Z" fill="#4CB7A5"/>
</svg>
