<svg width="39" height="39" viewBox="0 0 39 39" fill="none" xmlns="http://www.w3.org/2000/svg">
<path d="M6.69141 6.5H32.6914C34.4789 6.5 35.9414 7.9625 35.9414 9.75V29.25C35.9414 31.0375 34.4789 32.5 32.6914 32.5H6.69141C4.90391 32.5 3.44141 31.0375 3.44141 29.25V9.75C3.44141 7.9625 4.90391 6.5 6.69141 6.5Z" stroke="black" stroke-width="2" stroke-linecap="round" stroke-linejoin="round"/>
<path d="M35.5591 9.75L19.5002 21.2206L3.44141 9.75" stroke="black" stroke-width="2" stroke-linecap="round" stroke-linejoin="round"/>
<g clip-path="url(#clip0_512_1748)">
<path d="M26.338 15.4592C25.9597 15.0806 25.5104 14.7803 25.016 14.5755C24.5215 14.3706 23.9915 14.2651 23.4563 14.2651C22.9211 14.2651 22.3911 14.3706 21.8966 14.5755C21.4022 14.7803 20.9529 15.0806 20.5745 15.4592L19.7893 16.2444L19.004 15.4592C18.2397 14.6949 17.2031 14.2655 16.1223 14.2655C15.0414 14.2655 14.0048 14.6949 13.2405 15.4592C12.4762 16.2235 12.0469 17.2601 12.0469 18.3409C12.0469 19.4218 12.4762 20.4584 13.2405 21.2227L14.0258 22.0079L19.7893 27.7714L25.5528 22.0079L26.338 21.2227C26.7166 20.8443 27.0169 20.3951 27.2218 19.9006C27.4266 19.4061 27.5321 18.8762 27.5321 18.3409C27.5321 17.8057 27.4266 17.2757 27.2218 16.7813C27.0169 16.2868 26.7166 15.8376 26.338 15.4592Z" fill="#FEFEFE" stroke="black" stroke-width="2" stroke-linecap="round" stroke-linejoin="round"/>
</g>
<defs>
<clipPath id="clip0_512_1748">
<rect width="17.7794" height="17.7794" fill="white" transform="translate(10.8984 12.0441)"/>
</clipPath>
</defs>
</svg>
