<svg width="18" height="18" viewBox="0 0 18 18" fill="none" xmlns="http://www.w3.org/2000/svg">
<path d="M16.5125 9.455C16.3766 10.9251 15.8249 12.3261 14.9219 13.494C14.0188 14.662 12.8019 15.5486 11.4133 16.0502C10.0248 16.5517 8.5221 16.6475 7.08114 16.3262C5.64017 16.0049 4.32052 15.2798 3.27658 14.2359C2.23264 13.192 1.50761 11.8723 1.18631 10.4313C0.865006 8.99038 0.960732 7.48771 1.46228 6.09917C1.96383 4.71062 2.85047 3.49363 4.01843 2.5906C5.1864 1.68758 6.58739 1.13585 8.05748 1C7.19679 2.16441 6.78262 3.59907 6.8903 5.04304C6.99798 6.48701 7.62036 7.84437 8.64423 8.86824C9.66811 9.89212 11.0255 10.5145 12.4694 10.6222C13.9134 10.7299 15.3481 10.3157 16.5125 9.455Z" stroke="#2673DD" stroke-width="2" stroke-linecap="round" stroke-linejoin="round"/>
</svg>
