<svg width="21" height="21" viewBox="0 0 21 21" fill="none" xmlns="http://www.w3.org/2000/svg">
<g clip-path="url(#clip0_400_578)">
<path d="M17.4508 3.86044C17.0231 3.43254 16.5153 3.09311 15.9564 2.86152C15.3975 2.62994 14.7984 2.51074 14.1935 2.51074C13.5885 2.51074 12.9894 2.62994 12.4305 2.86152C11.8716 3.09311 11.3638 3.43254 10.9361 3.86044L10.0485 4.74805L9.16086 3.86044C8.29695 2.99653 7.12524 2.51119 5.90349 2.51119C4.68174 2.51119 3.51003 2.99653 2.64612 3.86044C1.78221 4.72435 1.29688 5.89606 1.29688 7.11781C1.29687 8.33956 1.78221 9.51127 2.64612 10.3752L3.53373 11.2628L10.0485 17.7775L16.5632 11.2628L17.4508 10.3752C17.8787 9.94749 18.2182 9.43968 18.4497 8.88077C18.6813 8.32186 18.8005 7.7228 18.8005 7.11781C18.8005 6.51282 18.6813 5.91376 18.4497 5.35485C18.2182 4.79593 17.8787 4.28813 17.4508 3.86044Z" fill="#FB373E" stroke="#FB373E" stroke-width="2" stroke-linecap="round" stroke-linejoin="round"/>
</g>
<defs>
<clipPath id="clip0_400_578">
<rect width="20.0969" height="20.0969" fill="white"/>
</clipPath>
</defs>
</svg>
