<svg width="26" height="24" viewBox="0 0 26 24" fill="none" xmlns="http://www.w3.org/2000/svg">
<path d="M23.283 16.212H17.394C17.0492 16.212 16.7185 16.3385 16.4747 16.5635C16.231 16.7885 16.094 17.0938 16.094 17.412C16.094 17.7302 16.231 18.0355 16.4747 18.2605C16.7185 18.4855 17.0492 18.612 17.394 18.612H20.514C19.0799 19.9952 17.2307 20.9511 15.2038 21.3568C13.1766 21.7626 11.0646 21.5995 9.13869 20.8887C7.2129 20.1779 5.56126 18.9517 4.39612 17.3679C3.23088 15.7839 2.60542 13.9146 2.6 12C2.6 11.6817 2.46304 11.3765 2.21929 11.1515C1.97543 10.9265 1.64479 10.8 1.3 10.8C0.955213 10.8 0.624575 10.9265 0.380714 11.1515C0.136964 11.3765 0 11.6817 0 12C0.00685374 14.3434 0.756896 16.6336 2.15749 18.588C3.55809 20.5425 5.54799 22.0757 7.88158 22.9983C10.2152 23.9209 12.7903 24.1927 15.2893 23.7799C17.7883 23.3672 20.1017 22.2882 21.944 20.676V22.8C21.944 23.1183 22.081 23.4236 22.3247 23.6486C22.5685 23.8736 22.8992 24 23.244 24C23.5888 24 23.9194 23.8736 24.1632 23.6486C24.4069 23.4236 24.544 23.1183 24.544 22.8V17.4C24.5407 17.0899 24.4077 16.7932 24.1726 16.5716C23.9376 16.3501 23.6188 16.2212 23.283 16.212ZM13 0C9.66731 0.00877551 6.46551 1.19867 4.05598 3.32398V1.2C4.05598 0.881735 3.91901 0.576531 3.67526 0.351429C3.4314 0.126429 3.10077 0 2.75598 0C2.41119 0 2.08055 0.126429 1.8368 0.351429C1.59294 0.576531 1.45598 0.881735 1.45598 1.2V6.6C1.45598 6.91827 1.59294 7.22347 1.8368 7.44857C2.08055 7.67357 2.41119 7.8 2.75598 7.8H8.60598C8.95077 7.8 9.2814 7.67357 9.52526 7.44857C9.76901 7.22347 9.90598 6.91827 9.90598 6.6C9.90598 6.28173 9.76901 5.97653 9.52526 5.75143C9.2814 5.52643 8.95077 5.4 8.60598 5.4H5.48598C6.91918 4.01745 8.76737 3.06184 10.7931 2.65571C12.8189 2.24969 14.93 2.41173 16.8552 3.12102C18.7806 3.83041 20.4323 5.05469 21.5985 6.63673C22.7647 8.21878 23.3919 10.0865 23.4 12C23.4 12.3183 23.5371 12.6236 23.7808 12.8486C24.0246 13.0736 24.3552 13.2 24.7 13.2C25.0448 13.2 25.3755 13.0736 25.6193 12.8486C25.863 12.6236 26 12.3183 26 12C26 10.4242 25.6637 8.86367 25.0104 7.40786C24.3571 5.95194 23.3997 4.62908 22.1924 3.51469C20.9853 2.40041 19.5522 1.51653 17.9748 0.913469C16.3977 0.310408 14.7071 0 13 0Z" fill="#FEFEFE"/>
</svg>
