<svg width="44" height="44" viewBox="0 0 44 44" fill="none" xmlns="http://www.w3.org/2000/svg">
<g clip-path="url(#clip0_381_335)">
<path d="M21.983 3.66663C11.863 3.66663 3.66797 11.88 3.66797 22C3.66797 32.12 11.863 40.3333 21.983 40.3333C32.1213 40.3333 40.3346 32.12 40.3346 22C40.3346 11.88 32.1213 3.66663 21.983 3.66663ZM22.0013 36.6666C13.898 36.6666 7.33464 30.1033 7.33464 22C7.33464 13.8966 13.898 7.33329 22.0013 7.33329C30.1046 7.33329 36.668 13.8966 36.668 22C36.668 30.1033 30.1046 36.6666 22.0013 36.6666Z" fill="#1B1B1B"/>
<path d="M22.918 12.8334H20.168V23.8334L29.793 29.6084L31.168 27.3534L22.918 22.4584V12.8334Z" fill="#1B1B1B"/>
</g>
<defs>
<clipPath id="clip0_381_335">
<rect width="44" height="44" fill="white"/>
</clipPath>
</defs>
</svg>
